<?xml version="1.0" encoding="UTF-8"?>
<svg id="Calque_1" data-name="Calque 1" xmlns="http://www.w3.org/2000/svg" viewBox="0 0 223.52 220.09">
  <defs>
    <style>
      .cls-1 {
        fill: #009741;
      }

      .cls-2 {
        fill: #fff;
      }

      .cls-3 {
        fill: #76b72e;
      }
    </style>
  </defs>
  <circle class="cls-3" cx="108.47" cy="111.62" r="108.47"/>
  <path class="cls-1" d="m205.67,167.66l-8.67-5.62,2.81-4.34c3.7-5.7,6.7-11.87,8.9-18.32,8.12-23.79,5.1-49.82-8.49-73.31-13.72-23.72-36.54-42-64.26-51.46l-4.89-1.67,3.33-9.78,4.89,1.67c30.08,10.27,54.89,30.17,69.86,56.06,15.11,26.11,18.42,55.18,9.32,81.82-2.48,7.26-5.84,14.19-10.01,20.61l-2.81,4.34Z"/>
  <g>
    <path class="cls-2" d="m36.34,125.06c-1.82,0-3.54-.34-5.15-1.02-6.71-2.81-8.74-10.43-8.82-10.76l-.07-.28v-.29c.04-4.61-.12-17.55-1.27-21.97-1.8-6.97,4.9-24.03,6.21-26.89,2.81-6.13,7.41-11.49,11.87-16.67,7.59-8.84,14.76-17.18,12.61-28.4l4.35-.83c2.56,13.32-5.66,22.88-13.6,32.12-4.25,4.94-8.65,10.06-11.2,15.62-2.32,5.06-7.14,19.3-5.94,23.93,1.42,5.5,1.42,20.31,1.41,22.78.36,1.12,2.08,5.84,6.21,7.56,3.26,1.36,7.42.6,12.36-2.24,16.91-9.75,22.75-15.63,22.81-15.7.03-.04,11.07-12.63,15.74-19.39,3.02-4.36,4.94-9.34,5.4-14.01.2-2.07.08-4.24-.04-6.34-.25-4.23.46-6.4,3.15-9.67,2.15-2.6,4.8-5.42,8.16-6.58,4.19-1.36,15.37.1,18.86,3,1.42,1.19,2.37,4.04,4.05,9.81.49,1.69,1.15,3.95,1.51,4.75.68.58.72,1.4.72,1.63v2.4l-2.39-.19h-.02l-.28-.03c-5.46-.43-9.31-.77-11.16-.98-.43-.03-1.39.72-1.52,1.48-.12.73,1.6,1.15,1.95,1.22,2.53.55,4.72.35,6.65.17,2.96-.28,6.01-.57,8.36,2.36,1.4,1.74,1.47,3.43,1.28,4.54-.45,2.63-2.75,4.45-3.61,5.04-1.57,1.77-3.54,4.92-3.07,6.48.16.54.76.91,1.41,1.17.78-.66,2.08-2.07,2.88-4.59,1.77-5.62,5.39-7.04,5.8-7.18l2.5-.88.42,2.62c0,.07,1.07,6.65,2.79,10.85.34.83,1.02,1.49,1.83,1.77.49.17.78.1.83.07-.01,0,.24-.55-.34-2.1l-5.6-15.1,1.73-.9c.71-.37,2.97-1.04,8.57.72,3.39,1.07,6.98,1.22,8.25.84-.15-.32-.49-.86-1.22-1.68l-10.25-1.36-.36-.2c-1.5-.83-3.2-2.55-3-4.69.06-.63.26-1.2.57-1.7l-1.57,1.41-1.32-2.54c-.06-.12-6.13-11.81-9.57-19.37-.28-.62-2.73-5.51-11.49-2.64l-.17.05c-1.86.44-5.22.92-6.9-.89-.84-.9-1.08-2.18-.66-3.5,1.03-3.27,9.94-10.37,13.72-13.26.4-.33,11.47-9.57,14.94-12.35l2.78,3.46c-3.44,2.76-14.83,12.26-14.95,12.35-4.58,3.51-9.65,7.9-11.55,10.12.48-.04,1.03-.12,1.5-.23,10.29-3.32,15.51,1.89,16.83,5.13,2.4,5.27,6.16,12.69,8.13,16.55l7.45-6.7.65-.11c3.88-.61,6.58.07,8.05,2.04,2.18,2.92.3,7.03.08,7.49l-.41.85-8.89,2.97c-1.6.53-2.33,1-2.65,1.26.08.08.18.17.28.24l10.88,1.44.53.55c1.1,1.13,4.46,4.56,2.58,7.62-2.73,4.45-13.47,1.12-13.58,1.08-1.25-.39-2.25-.63-3.03-.77l3.81,10.28c1.65,4.45-.16,6.97-2.22,7.77-3.02,1.18-6.93-.82-8.35-4.3-.99-2.43-1.77-5.44-2.29-7.82-.32.56-.63,1.24-.9,2.08-1.72,5.45-5.3,7.44-5.7,7.65l-.74.38-.81-.19c-3.72-.91-5.05-2.94-5.51-4.48-1.38-4.59,3.28-9.93,4.23-10.95l.21-.22.25-.16c.67-.42,1.74-1.44,1.87-2.23.02-.13.07-.46-.37-1.01-.77-.96-1.59-1-4.5-.72-2.14.2-4.81.45-8.01-.25-4.55-1-5.76-3.89-5.37-6.27.49-3.02,3.53-5.47,6.37-5.17,1.37.15,4.04.39,7.66.69-.23-.76-.49-1.64-.78-2.64-.7-2.4-2-6.89-2.71-7.72-2.06-1.71-11.49-3.13-14.54-2.13-2.28.79-4.39,3.07-6.15,5.19-1.96,2.38-2.32,3.49-2.14,6.59.12,2.17.26,4.61.02,7.03-.55,5.5-2.68,11.05-6.16,16.1-4.81,6.97-15.67,19.36-16.13,19.88-.32.33-6.29,6.4-23.85,16.52-4.04,2.34-7.78,3.51-11.16,3.51Zm87.27-62.01c.38.06.7.17.95.31-.23-.16-.55-.29-.95-.32h0Zm24.19-5.87l-6.76,6.09c1.12-.64,2.26-1.02,2.86-1.23l7.01-2.34c.24-.81.34-1.74.06-2.12-.21-.28-1.11-.65-3.17-.4Z"/>
    <path class="cls-1" d="m109.56,219.33c-10.8,0-21.53-1.54-31.82-4.64l1.28-4.24c46.94,14.14,100.52-6.83,124.65-48.74l3.84,2.21c-12.25,21.28-32.11,38.13-55.9,47.45-13.53,5.29-27.84,7.96-42.05,7.96Z"/>
    <path class="cls-1" d="m77.74,214.69c-3.12-.93-6.24-2.03-9.25-3.25-9.5-3.83-18.19-8.61-25.84-14.22l2.62-3.57c7.35,5.39,15.72,10,24.87,13.68,2.9,1.16,5.88,2.21,8.87,3.11l-1.28,4.24Z"/>
    <path class="cls-1" d="m42.65,197.22C-9.6,158.9-3.62,91.31,7.67,69.59l3.93,2.04c-5.24,10.08-9.27,31.58-5.75,54.99,2.94,19.55,12.17,47.05,39.42,67.04l-2.62,3.57Z"/>
  </g>
  <path class="cls-1" d="m114.23,209.17c-12.7,0-26.87-1.95-42.11-7.15-2.7-.92-4.15-3.86-3.22-6.56.92-2.7,3.86-4.14,6.56-3.22,57.43,19.6,105.49-8.93,122.29-31.52,1.7-2.29,4.94-2.77,7.23-1.06,2.29,1.7,2.77,4.94,1.07,7.23-10.85,14.6-29.68,27.72-50.34,35.1-10.59,3.8-24.74,7.18-41.47,7.18Z"/>
  <path class="cls-1" d="m27.85,65.41c-2.08,4.55-7.54,19.74-6.07,25.4,1.46,5.67,1.33,22.54,1.33,22.54,0,0,4.39,17,21.89,6.92,17.5-10.09,23.29-16.07,23.29-16.07,0,0,11.18-12.73,15.98-19.68,3.06-4.42,5.24-9.68,5.78-15.04.22-2.22.1-4.46-.03-6.69-.22-3.69.33-5.32,2.64-8.12,1.89-2.29,4.29-4.9,7.17-5.89,3.58-1.17,13.87.23,16.72,2.61,1.71,1.42,2.46,4.59,3.17,6.58.65,1.84,1.31,3.68,1.91,5.54.24.76.72,1.74.18,2.47-.65.87-3.05,1.12-4.01,1.04-2.51-.21-5.52-1.96-7.15-2.13-3.15-.34-6.98,5.61-.28,7.07,3.27.71,6.13-1.55,8.36-1.74,2.32-.19,3.98,1.7,5.4,3.48,2.8,3.49-1.71,8.1-1.71,8.1,0,0-5.29,3.88-5.91,7.1-.3,1.6.83,3.53,2.19,4.33,5.13,3.04,6.32-4.9,7.33-8.11.55-1.73,1.52-3.31,2.8-4.6.61-.62,1.84-2.07,2.77-1.61.99.49,1.53,3.86,1.71,4.82.46,2.46-.84,6.44,0,8.49,1.84,4.49,9.85,5.17,8.75-2.51-.32-2.26-3.71-4.43-4.42-6.35-.62-1.66-1.13-3.38-1.51-5.12-.36-1.61.35-3.79,2.25-3.74,1.7.04,3.85.33,5.45.84,2.24.71,4.41,4.79,6.82,4.64,1.19-.08,4.11-1.25,4.34-2.73.25-1.62-.74-4.5-2.22-4.97-1.48-.47-5.43.16-6.92-.17l-5.1-1.6s-6.67-3.25,1.33-5.93c1.66-.55,3.52-1.97,5.34-2.82,1.07-.5,2.09-1.1,3.12-1.66,1.77-.97,4.25-2.31,3.09-4.73-.71-1.46-2.61-2.33-4.17-2.34-1.88-.02-2.59,1.79-3.55,3.12-.92,1.28-1.82,2.74-3,3.8-1.55,1.4-3.99,2.03-5.84,3.05,0,0-1.07.15-1.6-.9-1.63-3.22-5-9.84-5.38-10.58-.32-.65-.66-1.3-.97-1.96-.79-1.63-1.56-3.26-2.31-4.91,0,0-3.06-7.47-14.19-3.83,0,0-5.87,1.4-4.93-1.55.94-2.96,12.95-12.18,12.95-12.18,0,0,6.91-5.79,11.59-9.62,1.1-.89,1.74-1.88,3.42-2.32,1.92-.51,4.91,1.02,5.21,1.18,2.32,1.19-1.46-10.87-.99-11.17-31.34-10.94-60.94-3.27-87.58,12.86.06.34.13.67.2,1.02,3.69,19.22-17.22,30.23-24.64,46.41Z"/>
  <path class="cls-1" d="m11.17,73.33l-3.94-1.86c8.96-22.24,25.23-41.41,45.7-53.79l2.29,3.79c-19.63,11.89-35.46,30.52-44.06,51.86Z"/>
</svg>