<svg width="141.732" height="141.732" xmlns="http://www.w3.org/2000/svg">

 <g>
  <title>background</title>
  <rect fill="none" id="canvas_background" height="402" width="582" y="-1" x="-1"/>
 </g>
 <g>
  <title>Layer 1</title>
  <path id="svg_1" d="m62.595,104.362173c0,-0.562 0.448,-1.013 1.008,-1.013l14.525,0c0.561,0 1.012,0.45 1.012,1.013c0,0.561 -0.451,1.014 -1.012,1.014l-14.525,0c-0.558,-0.001 -1.008,-0.454 -1.008,-1.014m58.408,-6.443l-100.688,0l0,-67.445l100.688,0l0,67.445l0,0zm20.021,6.939c0,-1.5 -1.213,-2.716 -2.707,-2.716l0,-0.193l-14.363,0c0.732,-0.328 1.246,-1.063 1.246,-1.923l0,-71.664c0,-1.164 -0.938,-2.107 -2.1,-2.107l-104.884,0c-1.155,0 -2.097,0.943 -2.097,2.107l0,71.663c0,0.855 0.513,1.595 1.245,1.923l-13.95,0l0,0.188c-1.494,-0.001 -2.706,1.217 -2.706,2.719s1.212,2.72 2.706,2.72l134.903,0c1.496,-0.002 2.707,-1.217 2.707,-2.717"/>
 </g>
</svg>