<?xml version="1.0"?>
<svg width="640" height="480" xmlns="http://www.w3.org/2000/svg" xmlns:se="http://svg-edit.googlecode.com">
 <!-- Created with SVG-edit - http://svg-edit.googlecode.com/ -->
 <defs>
  <marker refY="50" refX="50" markerHeight="5" markerWidth="5" viewBox="0 0 100 100" se_type="rightarrow" orient="auto" markerUnits="strokeWidth" id="se_marker_mid_svg_17">
   <path stroke-width="10" stroke="#7f7f7f" fill="#7f7f7f" d="m100,50l-100,40l30,-40l-30,-40z"/>
  </marker>
  <marker refY="50" refX="50" markerHeight="5" markerWidth="5" viewBox="0 0 100 100" se_type="rightarrow" orient="auto" markerUnits="strokeWidth" id="se_marker_mid_svg_16">
   <path stroke-width="10" stroke="#7f7f7f" fill="#7f7f7f" d="m100,50l-100,40l30,-40l-30,-40z"/>
  </marker>
  <marker refY="50" refX="50" markerHeight="5" markerWidth="5" viewBox="0 0 100 100" se_type="leftarrow" orient="auto" markerUnits="strokeWidth" id="se_marker_start_svg_35">
   <path stroke-width="10" stroke="#7f7f7f" fill="#7f7f7f" d="m0,50l100,40l-30,-40l30,-40z"/>
  </marker>
  <marker refY="50" refX="50" markerHeight="5" markerWidth="5" viewBox="0 0 100 100" se_type="rightarrow" orient="auto" markerUnits="strokeWidth" id="se_marker_mid_svg_44">
   <path stroke-width="10" stroke="#7f7f7f" fill="#7f7f7f" d="m100,50l-100,40l30,-40l-30,-40z"/>
  </marker>
  <marker refY="50" refX="50" markerHeight="5" markerWidth="5" viewBox="0 0 100 100" se_type="rightarrow" orient="auto" markerUnits="strokeWidth" id="se_marker_mid_svg_45">
   <path stroke-width="10" stroke="#7f7f7f" fill="#7f7f7f" d="m100,50l-100,40l30,-40l-30,-40z"/>
  </marker>
 </defs>
 <g>
  <title>Calque 1</title>
  <polyline marker-mid="url(#se_marker_mid_svg_45)" se:connector="svg_33 svg_37" fill="none" stroke-width="5" stroke="#7f7f7f" points="319.781,313.113 223.686,319.349 127.59,325.585" id="svg_45"/>
  <polyline marker-mid="url(#se_marker_mid_svg_44)" se:connector="svg_33 svg_7" fill="none" stroke-width="5" stroke="#7f7f7f" points="319.781,276.875 217.391,233.038 115,189.2" id="svg_44"/>
  <polyline marker-start="url(#se_marker_start_svg_35)" se:connector="svg_33 svg_8" fill="none" stroke-width="5" stroke="#7f7f7f" points="479.285,240.552 513.63,213.479 547.975,186.406" id="svg_35"/>
  <polyline marker-mid="url(#se_marker_mid_svg_17)" se:connector="svg_14 svg_8" fill="none" stroke-width="5" stroke="#7f7f7f" points="404.785,98.1116 471.855,130.749 538.924,163.387" id="svg_17"/>
  <polyline marker-mid="url(#se_marker_mid_svg_16)" se:connector="svg_5 svg_14" fill="none" stroke-width="5" stroke="#7f7f7f" points="151,144.078 204.391,119.872 257.781,95.667" id="svg_16"/>
  <rect id="svg_6" height="58" width="0" y="177" x="152" stroke-width="2" stroke="#000000" fill="#7fff00"/>
  <path id="svg_23" d="m299.621552,322.394379l-0.01692,-0.010635c-0.00427,-0.00268 -0.009895,-0.00139 -0.012585,0.00288l-0.00667,0.010615l0.03237,0.02033l0.006675,-0.01061c0.002684,-0.004279 0.001402,-0.009925 -0.00287,-0.01258zm-0.093781,0.094543l0.03237,0.02033l0.052774,-0.08399l-0.032385,-0.020335l-0.052759,0.083995zm-0.004944,0.025848l-0.000715,0.019095l0.016895,-0.008935l0.0157,-0.00829l-0.03123,-0.019625l-0.00065,0.017755z" stroke-width="2" stroke="#bfbfbf" fill="#bfbfbf"/>
  <g id="svg_25">
   <path id="svg_3" d="m629.498779,135.856567c0,8.959045 -29.103271,16.221878 -65.002686,16.221878m65.002686,-16.221878l0,0c0,8.959045 -29.103271,16.221878 -65.002686,16.221878c-35.89978,0 -65.002625,-7.262833 -65.002625,-16.221878m0,0l0,0c0,-8.959 29.102844,-16.223488 65.002625,-16.223488c35.899414,0 65.002686,7.264488 65.002686,16.223488l0,64.889542c0,8.959839 -29.103271,16.22345 -65.002686,16.22345c-35.89978,0 -65.002625,-7.263611 -65.002625,-16.22345l0,-64.889542z" stroke-width="2" stroke="#7f7f7f" fill="#7fff00"/>
   <text transform="matrix(0.807463, 0, 0, 0.808868, 92.2022, 29.3366)" id="svg_8" xml:space="preserve" text-anchor="middle" font-family="serif" font-size="24" y="188" x="581.914948" stroke-width="0" stroke="#000000" fill="#3f3f3f">QGIS Server</text>
  </g>
  <g id="svg_26">
   <rect id="svg_5" height="90.000001" width="130.000002" y="129.000006" x="19.999998" stroke-width="2" stroke="#7f7f7f" fill="#7fff00"/>
   <text xml:space="preserve" text-anchor="middle" font-family="serif" font-size="24" id="svg_7" y="184" x="83" stroke-width="0" stroke="#000000" fill="#3f3f3f">QGIS</text>
  </g>
  <g id="svg_27">
   <path id="svg_9" d="m35.875046,106.075943c-0.011837,-11.898514 -0.023674,-23.79895 -0.035606,-35.699074c10.667908,0.136047 21.381546,-0.323944 32.012901,0.35154c5.184753,1.542046 4.437393,11.142441 4.353485,18.314308c-0.227539,5.406532 3.029251,16.126839 -5.429626,17.738533c-4.216911,0 -4.233406,1.510315 -3.802879,4.239761c0.49929,4.092499 -0.950729,13.256943 -7.878174,7.448196l-19.2201,-12.393265zm32.649094,-3.889542c0.016808,-10.695824 -0.125854,-19.822281 -0.833527,-26.868683c-6.288628,-2.397835 -14.78558,-1.230309 -21.90049,-1.268456c-2.797054,1.139908 6.634277,4.926964 8.634666,6.395721c7.594116,3.157288 9.860008,8.901497 8.548531,15.391701c0,2.52449 0,5.051071 0,7.575485c1.400345,-0.001526 4.297249,-0.582245 5.550819,-1.225769l0,0z" stroke-width="2" stroke="#7f7f7f" fill="#7fff00"/>
   <g id="svg_20">
    <text transform="matrix(0.582254, 0, 0, 0.561001, 73.3117, 52.741)" xml:space="preserve" text-anchor="middle" font-family="serif" font-size="24" id="svg_11" y="58.197075" x="50.610909" stroke-width="0" stroke="#000000" fill="#3f3f3f">Projet</text>
    <text transform="matrix(0.582254, 0, 0, 0.561001, 73.3117, 52.741)" id="svg_12" xml:space="preserve" text-anchor="middle" font-family="serif" font-size="24" y="98.197075" x="65.610909" stroke-width="0" stroke="#000000" fill="#3f3f3f">Donn&#233;es</text>
   </g>
  </g>
  <g id="svg_28">
   <path id="svg_29" d="m511.875366,96.505188c-0.011963,-12.374481 -0.023926,-24.750984 -0.03595,-37.127151c10.76886,0.141487 21.583923,-0.336906 32.315918,0.365601c5.233826,1.603737 4.47937,11.588173 4.394653,19.046936c-0.229736,5.622803 3.057922,16.771973 -5.481018,18.448135c-4.256775,0 -4.273499,1.570724 -3.838867,4.409363c0.504028,4.25621 -0.959717,13.787262 -7.952759,7.746155l-19.401978,-12.889038zm32.95813,-4.045135c0.016907,-11.123695 -0.127075,-20.615242 -0.841431,-27.94352c-6.348206,-2.493759 -14.925537,-1.279526 -22.107788,-1.319199c-2.823547,1.185509 6.697083,5.124054 8.71637,6.651573c7.666016,3.283592 9.953369,9.257584 8.629456,16.007416c0,2.625465 0,5.253143 0,7.878525c1.413574,-0.001587 4.337952,-0.60553 5.603394,-1.274796l0,0z" stroke-width="2" stroke="#7f7f7f" fill="#7fff00"/>
   <g id="svg_30">
    <text id="svg_31" transform="matrix(0.587765, 0, 0, 0.583443, 213.87, 77.3242)" xml:space="preserve" text-anchor="middle" font-family="serif" font-size="24" y="-3.998352" x="621.921455" stroke-width="0" stroke="#000000" fill="#3f3f3f">Projet</text>
    <text id="svg_32" transform="matrix(0.587765, 0, 0, 0.583443, 213.87, 77.3242)" xml:space="preserve" text-anchor="middle" font-family="serif" font-size="24" y="36.001648" x="636.921455" stroke-width="0" stroke="#000000" fill="#3f3f3f">Donn&#233;es</text>
   </g>
  </g>
  <g id="svg_42">
   <path id="svg_33" d="m408.831268,252.390747c-0.314362,0.00882 -0.616547,0.035339 -0.930725,0.068512c-5.030304,0.499969 -9.469421,3.692871 -11.727844,8.449005l-1.193787,3.600891c0.257538,-1.247009 0.652771,-2.457886 1.193787,-3.600891c-4.020325,-4.167328 -9.665527,-6.090759 -15.245941,-5.187653c-5.579529,0.902863 -10.424286,4.522675 -13.072479,9.769989c-7.473907,-4.60672 -16.791504,-4.326447 -24.000427,0.725098c-7.208191,5.053894 -11.049347,13.997498 -9.883087,23.022064l0.764526,3.667267c-0.346313,-1.201843 -0.603973,-2.424286 -0.764526,-3.667267l-0.11731,0.33728c-6.264313,0.681671 -11.404846,5.543304 -12.738403,12.051392c-1.334442,6.506866 1.44104,13.180725 6.876831,16.544952l8.486664,2.062622c-2.962311,0.244659 -5.921783,-0.473602 -8.486664,-2.062622c-4.193115,4.696472 -5.158173,11.650391 -2.392731,17.39386c2.765411,5.741089 8.672699,9.047729 14.766663,8.298553l3.702972,-0.980621c-1.190613,0.498138 -2.430145,0.823181 -3.702972,0.980621c3.459625,6.367157 9.195038,11.013977 15.929016,12.863312c6.732666,1.846039 13.883148,0.753571 19.848267,-3.026825c4.865479,7.671143 13.498169,11.700378 22.157562,10.343689c8.658081,-1.356964 15.800323,-7.864655 18.337585,-16.699066l0.878876,-4.935486c-0.130859,1.677551 -0.41568,3.326721 -0.878876,4.935486c5.954712,3.905518 13.446716,4.126678 19.59848,0.5755c6.152863,-3.551025 9.993469,-10.321259 10.048737,-17.697083l-2.206329,-11.018311l-8.689301,-7.455261c6.719513,4.209595 10.95694,10.623535 10.89563,18.473572c7.990051,0.083069 14.776672,-6.763611 17.823517,-14.618103c3.044312,-7.859558 1.892151,-16.817444 -3.024597,-23.546814c2.039612,-5.008362 1.919495,-10.706482 -0.330566,-15.616638c-2.25116,-4.907806 -6.403168,-8.557373 -11.39505,-9.988037c-1.117279,-6.506042 -5.723511,-11.740356 -11.810028,-13.455658c-6.085052,-1.71524 -12.566528,0.400574 -16.642029,5.442474l-2.474487,4.17627c0.630859,-1.510254 1.457581,-2.916779 2.474487,-4.17627c-2.874054,-3.96286 -7.377716,-6.198303 -12.075439,-6.049805l0,0z" stroke-width="2" stroke="#a5a5a5" fill="#bfbfbf"/>
   <text id="svg_34" xml:space="preserve" text-anchor="middle" font-family="serif" font-size="24" y="318" x="393" stroke-width="0" stroke="#000000" fill="#3f3f3f">WMS</text>
  </g>
  <g id="svg_43">
   <path id="svg_14" d="m346.831268,6.390747c-0.314362,0.00882 -0.616547,0.035324 -0.930725,0.068512c-5.030304,0.499954 -9.469421,3.692871 -11.727844,8.44899l-1.193787,3.600922c0.257538,-1.247009 0.652771,-2.457901 1.193787,-3.600922c-4.020325,-4.167313 -9.665527,-6.090729 -15.245941,-5.187637c-5.579529,0.902863 -10.424286,4.52269 -13.072479,9.769989c-7.473907,-4.60672 -16.791504,-4.326447 -24.000427,0.725082c-7.208191,5.053909 -11.049347,13.997498 -9.883087,23.022079l0.764526,3.667267c-0.346313,-1.201828 -0.603973,-2.424286 -0.764526,-3.667267l-0.11731,0.33728c-6.264313,0.681686 -11.404846,5.54332 -12.738403,12.051392c-1.334442,6.506882 1.44104,13.180725 6.876831,16.544952l8.486664,2.062637c-2.962311,0.244644 -5.921783,-0.473618 -8.486664,-2.062637c-4.193115,4.696457 -5.158173,11.650375 -2.392731,17.393845c2.765411,5.741089 8.672699,9.047745 14.766663,8.298569l3.702972,-0.980637c-1.190613,0.498154 -2.430145,0.823196 -3.702972,0.980637c3.459625,6.367157 9.195038,11.013977 15.929016,12.863312c6.732666,1.846039 13.883148,0.753571 19.848267,-3.026825c4.865479,7.671143 13.498169,11.700378 22.157562,10.343689c8.658081,-1.356964 15.800323,-7.864655 18.337585,-16.699066l0.878876,-4.935501c-0.130859,1.677567 -0.41568,3.326736 -0.878876,4.935501c5.954712,3.905518 13.446716,4.126678 19.59848,0.5755c6.152863,-3.551025 9.993469,-10.321259 10.048737,-17.697067l-2.206329,-11.018341l-8.689301,-7.455261c6.719513,4.20961 10.95694,10.62355 10.89563,18.473602c7.990051,0.083054 14.776672,-6.763611 17.823517,-14.618103c3.044312,-7.859589 1.892151,-16.817474 -3.024597,-23.546814c2.039612,-5.008362 1.919495,-10.706512 -0.330566,-15.616653c-2.25116,-4.907806 -6.403168,-8.557373 -11.39505,-9.988037c-1.117279,-6.506058 -5.723511,-11.740372 -11.810028,-13.455658c-6.085052,-1.71524 -12.566528,0.400574 -16.642029,5.442474l-2.474487,4.17627c0.630859,-1.510239 1.457581,-2.916779 2.474487,-4.17627c-2.874054,-3.96286 -7.377716,-6.198303 -12.075439,-6.049805l0,0z" stroke-width="2" stroke="#a5a5a5" fill="#bfbfbf"/>
   <text id="svg_18" xml:space="preserve" text-anchor="middle" font-family="serif" font-size="24" y="67" x="330" stroke-width="0" stroke="#000000" fill="#3f3f3f">FTP</text>
  </g>
  <g id="svg_48">
   <path id="svg_46" d="m162.560852,260.966461v49.704613h59.999126v-49.704613h-59.999126zm50.549072,45.43689h-41.109879v-41.171387h41.110504v41.171387zm-31.114975,-25.034698c3.168843,0 5.739915,-2.574918 5.739915,-5.748499c0,-3.175807 -2.571073,-5.748499 -5.739915,-5.748499c-3.171064,0 -5.739915,2.574918 -5.739915,5.748499c0.003374,3.167872 2.56682,5.748499 5.739915,5.748499zm28.890579,5.005249l-10.926508,-10.942848l-15.370885,15.393871l-4.260667,-4.267582l-6.115466,6.124611v11.494774h36.672794v-17.802826z" stroke="#7f7f7f" fill="#ff7f00"/>
   <text xml:space="preserve" text-anchor="middle" font-family="serif" font-size="24" id="svg_47" y="295" x="266" stroke-width="0" stroke="#7f7f7f" fill="#ff7f00">cartes</text>
  </g>
  <g id="svg_49">
   <path id="svg_37" d="m76.587326,278.396027c-28.170944,0 -51.002922,22.608521 -51.002922,50.497437c0,27.892109 22.834488,50.502529 51.002975,50.502529c28.168499,0 51.002975,-22.610434 51.002975,-50.502529c-0.000099,-27.888916 -22.83773,-50.497437 -51.003029,-50.497437zm40.127655,55.332397c0.003509,0.00695 0.014037,0.00695 0.017546,0.013899c-0.077203,0.649785 -0.189498,1.285671 -0.298284,1.925032c-0.052638,-0.041697 -0.119313,-0.08687 -0.164933,-0.125092c-0.36145,-0.312731 -0.891342,-0.444773 -1.115932,-0.3996c-0.550947,0.111193 0.803611,1.05981 0.936961,1.188377c0.031583,0.031273 0.108786,0.104244 0.217572,0.201538c-3.610987,18.458061 -20.034134,32.447556 -39.720844,32.447556c-14.468511,0 -27.147318,-7.575034 -34.306137,-18.906317c0.431634,-0.055597 0.842213,-0.055597 0.982581,-0.264084c0.17897,-0.267558 0.35794,-0.837423 0.624641,-1.150154c0.27021,-0.309256 0.579021,-0.795726 0.445671,-1.014638c-0.13686,-0.222386 0.354431,-1.195326 0.308811,-1.455935c-0.04562,-0.264084 -0.445671,-0.889545 0.22459,-1.414238s1.382632,-1.327368 1.428252,-1.542805c0.042111,-0.218912 0.58253,-1.150154 0.533401,-1.591452c-0.042111,-0.441298 -0.533401,-0.97294 -0.842213,-1.104982c-0.31583,-0.128567 -0.982581,-0.173739 -1.249282,-0.524693c-0.27021,-0.357903 -1.024692,-0.705382 -1.291392,-0.618512c-0.266701,0.08687 -0.715881,0.173739 -1.070312,-0.052122c-0.35794,-0.215437 -0.936961,-0.482995 -1.158042,-0.656735c-0.228099,-0.173739 -0.803611,-0.305781 -1.070312,-0.305781c-0.27021,0 -0.228099,-0.180689 -0.624641,0.350953c-0.400051,0.531642 0,0.708856 -0.715881,0.615037c-0.715881,-0.07992 0.08773,-0.125092 0.4948,-0.656735c0.396542,-0.528167 -0.04562,-0.840898 -0.4948,-0.705382c-0.442162,0.132042 -0.13335,0.3996 -0.845721,0.531642c-0.712371,0.125092 -0.712371,-0.312731 -0.266701,-0.3996s1.245773,-0.482995 1.245773,-0.660209c0,-0.177214 -0.08773,-0.663684 -0.445671,-0.663684s-0.27021,-0.437823 -0.803611,-1.011163c-0.322848,-0.350953 -0.687807,-0.569865 -1.049256,-0.708856c-0.31583,-2.011902 -0.526383,-4.055076 -0.526383,-6.153844c0,-9.882289 3.646079,-18.923685 9.65386,-25.914953c0.084221,-0.069496 0.168443,-0.118143 0.242136,-0.125092c0.294774,-0.031273 1.087858,-0.08687 1.789702,-0.205012c0.708862,-0.118143 1.466853,-0.559441 1.716008,-0.531642c0.242136,0.027798 0.845721,0.027798 0.652715,-0.145941c-0.19486,-0.203836 -0.468054,-0.607553 -0.87512,-0.607553s-0.026619,-0.63559 0.08049,-0.63559c0.105277,0 0.652715,0.08687 0.624641,0.382226c-0.024871,0.29624 0.167801,0.65708 0.703156,0.550757c0.547438,-0.118143 0.463217,-0.562916 0.35794,-0.677583c-0.111618,-0.107237 -0.191833,-0.404509 -0.293426,-0.615996c-0.108786,-0.208487 -0.080712,-0.472571 0.49129,-0.531642c0.568646,-0.062108 1.350552,0.234218 1.323758,-0.23267s0,-0.97294 0.161424,-1.237024c0.16516,-0.267951 0.518538,-0.437628 0.32585,-0.522467c-0.187561,-0.106171 -0.428452,0.105286 -0.62114,-0.339142c-0.189498,-0.441298 0.164933,-0.764453 0.378996,-0.941667c0.070184,-0.052122 0.235118,-0.208487 0.435143,-0.389176c6.596552,-4.629148 14.633905,-7.365324 23.32467,-7.365324c11.275118,0 21.483444,4.597141 28.824724,11.988014c-0.028074,0.076445 -0.035092,0.180689 -0.108786,0.194588c-0.27021,0.045172 -0.58253,0.218912 -0.62815,-0.177214c-0.04562,-0.396126 -0.04562,-1.150154 -0.35794,-0.705382c-0.31232,0.441298 -0.445671,0.441298 -0.445671,0.663684c0,0.218912 0.266701,0.441298 0.17897,0.837423c-0.090344,0.390872 -0.090344,0.666537 0.048999,0.666537c0.126332,0 0.442162,-0.3996 0.838703,-0.489945c0.407069,-0.08687 1.119441,-0.305781 1.16506,0.090344c0.04562,0.3996 0.487781,0.528167 0.04562,0.705382c-0.44918,0.177214 -0.936961,0.090344 -1.028201,-0.177214c-0.08773,-0.267558 -0.400051,-0.267558 -0.712371,-0.045172c-0.308811,0.218912 -0.979072,1.014638 -0.979072,1.014638s-1.073821,0.482995 -1.203662,0.396126c-0.140369,-0.08687 0.354431,-0.57334 0.712371,-0.792251c0.35794,-0.222386 0.624641,-0.708856 0.49129,-0.840898c-0.13335,-0.132042 -0.308811,-0.969465 -0.221081,-1.191852c0.08773,-0.218912 0.487781,-0.528167 0.04562,-0.750554c-0.445671,-0.218912 -0.761501,-0.48647 -1.115932,-0.618512s-0.757991,0.528167 -1.070312,0.708856c-0.31232,0.177214 -0.266701,0.396126 -0.670261,0.441298c-0.400051,0.045172 -0.663242,0.57334 0,0.882596c0.670261,0.309256 0.894851,0.528167 0.715881,0.708856c-0.17897,0.177214 -0.936961,-0.08687 -0.936961,-0.08687s-0.579021,-0.264084 -0.940471,-0.264084c-0.354431,0 -0.803611,-0.218912 -1.158042,-0.264084c-0.35794,-0.045172 -1.073821,-0.045172 -1.245773,0.132042c-0.17897,0.177214 -0.62815,0.705382 -0.982581,0.528167c-0.354431,-0.177214 -0.354431,-0.354428 -0.845721,-0.177214c-0.49129,0.177214 -0.979072,-0.132042 -1.245773,0.132042c-0.27021,0.264084 -0.04562,0.264084 -0.894851,0c-0.845721,-0.264084 -0.663242,0.177214 -1.470363,0.309256s-1.291392,-0.132042 -1.515982,0.132042c-0.22459,0.267558 -0.53691,0.754029 -0.666752,0.441298c-0.13335,-0.305781 0.442162,-0.837423 0.217572,-1.014638c-0.217572,-0.177214 -1.158042,-0.08687 -1.287883,0.045172c-0.13686,0.132042 -0.049129,0.618512 0.038601,0.795726c0.09124,0.173739 0.22459,0.882596 -0.038601,0.750554c-0.27021,-0.132042 -0.22459,-0.576814 -0.4948,-0.528167c-0.266701,0.045172 -0.579021,0.177214 -0.712371,0.267558c-0.13335,0.08687 -0.670261,0.08687 -0.803611,0.264084c-0.129841,0.177214 0.049129,0.663684 -0.17897,0.705382c-0.221081,0.045172 -0.400051,0.222386 -0.891342,-0.08687c-0.49129,-0.309256 -0.49129,-0.132042 -0.624641,-0.041697c-0.13335,0.08687 -0.757991,0.441298 -0.803611,0.041697c-0.04562,-0.396126 0.08773,-0.528167 -0.31232,-0.795726c-0.40356,-0.264084 -0.09124,-0.264084 0.445671,-0.08687c0.533401,0.173739 1.203662,0.260609 2.182734,-0.045172c0.982581,-0.309256 1.386141,-0.441298 0.982581,-0.618512c-0.40356,-0.173739 -0.803611,-0.350953 -1.424743,-0.441298c-0.62815,-0.08687 -1.473872,-0.08687 -2.456454,-0.441298c-0.979072,-0.354428 -1.203662,-0.48647 -1.603713,-0.57334c-0.40356,-0.090344 -2.852995,-0.48647 -3.972434,-0.309256c-1.112423,0.177214 -4.186499,0.97294 -4.368976,1.104982s-0.44918,0.660209 -1.024692,1.104982c-0.579021,0.441298 -1.649333,1.455935 -2.498564,1.63315c-0.845721,0.177214 -1.828303,0.882596 -1.828303,1.05981c0,0.177214 0.354431,0.840898 0.266701,0.97294c-0.08773,0.132042 0.175461,0.795726 0.670261,0.97294c0.487781,0.173739 1.337012,0.132042 1.379123,-0.135517c0.049129,-0.264084 0.715881,-0.837423 0.761501,-0.441298c0.04562,0.3996 0.49129,1.014638 0.400051,1.278721c-0.08773,0.267558 0,0.531642 0.31583,0.48647c0.308811,-0.041697 1.961653,-0.396126 1.961653,-0.396126s0.53691,-0.222386 0.445671,-0.576814c-0.09124,-0.350953 0.58253,-0.837423 0.712371,-0.969465c0.13335,-0.132042 0.624641,-0.663684 0.049129,-0.837423c-0.58604,-0.177214 -1.028201,-0.222386 -0.40356,-0.750554s1.024692,0 1.828303,-0.795726c0.803611,-0.795726 -0.17897,-1.014638 0.670261,-1.05981c0.845721,-0.045172 1.740573,-0.08687 1.558093,0.177214c-0.175461,0.264084 -1.200153,0.840898 -1.782684,1.104982c-0.58253,0.267558 -0.49129,0.750554 -0.266701,1.014638c0.221081,0.264084 0.31583,0.882596 0.715881,0.795726c0.396542,-0.08687 0.891342,-0.396126 1.333503,-0.350953c0.44918,0.041697 1.344031,-0.045172 1.473872,-0.045172c0.13686,0 0.757991,0.618512 0.400051,0.705382c-0.354431,0.08687 -0.803611,0.045172 -1.561602,0.08687c-0.754482,0.045172 -1.600204,0.045172 -1.600204,0.177214c0,0.135517 1.024692,0.441298 0.666752,0.663684c-0.35794,0.218912 -0.712371,-0.045172 -1.161551,-0.090344c-0.445671,-0.041697 -0.712371,0.576814 -0.845721,0.927768c-0.13686,0.354428 0.221081,0.97294 -0.445671,0.750554c-0.670261,-0.218912 -1.161551,-0.218912 -1.337012,-0.132042c-0.17897,0.08687 -0.712371,0.264084 -1.161551,0.396126c-0.442162,0.132042 -0.266701,-0.218912 -0.849231,-0.218912c-0.575512,0 -0.575512,0 -0.575512,0l-0.36145,0.045172c0,0 -0.354431,-0.218912 -0.400051,-0.57334c-0.04562,-0.354428 0.175461,-0.750554 -0.04562,-0.837423c-0.22459,-0.090344 -1.024692,0.041697 -1.158042,0.305781c-0.13335,0.264084 -0.27021,0.750554 -0.09124,0.97294c0.182479,0.218912 0.715881,0.660209 0.22459,0.528167c-0.49129,-0.132042 -1.112423,-0.177214 -1.470363,0.090344c-0.354431,0.264084 -0.979072,0.837423 -0.979072,0.837423s-1.115932,0.08687 -1.115932,0.354428c0,0.267558 0,0.618512 -0.400051,0.663684c-0.40356,0.045172 -0.940471,0.173739 -1.473872,0.264084c-0.53691,0.08687 -0.487781,0.305781 -1.112423,0.354428s-0.715881,0.309256 -0.13335,0.396126c0.579021,0.08687 1.466853,0.441298 1.512473,0.837423c0.049129,0.396126 -0.04562,0.840898 -0.266701,1.237024c-0.150896,0.274508 -1.070312,0.090344 -1.607223,0.090344c-0.533401,0 -1.600204,-0.177214 -2.049384,0c-0.445671,0.177214 -0.35794,1.05981 -0.22459,1.455935c0.13686,0.396126 -0.042111,0.618512 -0.221081,0.750554c-0.17897,0.132042 -0.228099,0.528167 0,0.708856c0.221081,0.177214 0.400051,0.57334 0.58253,0.618512c0.17897,0.045172 0.754482,-0.132042 0.979072,0.08687c0.22459,0.222386 0.445671,0.750554 0.579021,0.618512c0.13686,-0.132042 0.31232,-0.705382 0.53691,-0.576814c0.22459,0.135517 0.757991,-0.041697 1.161551,-0.08687s0.621132,-0.48647 1.024692,-0.708856c0.400051,-0.218912 0.175461,-0.218912 0.04562,-0.48647c-0.13335,-0.264084 0.400051,-0.57334 0.715881,-0.882596c0.308811,-0.309256 0.887832,-0.045172 1.024692,-0.3996c0.13335,-0.354428 0.17897,-0.969465 0.529892,-0.927768c0.36145,0.045172 0.85274,0.264084 1.161551,0.264084c0.31232,0 0.979072,-0.48647 1.16506,-0.57334c0.175461,-0.08687 0.845721,-0.045172 0.936961,0.354428c0.08773,0.396126 0.845721,0.882596 1.024692,0.969465c0.17897,0.08687 1.337012,0.441298 1.519492,0.57334c0.175461,0.132042 0.442162,0.531642 0.533401,0.882596c0.08773,0.354428 0.400051,0.354428 0.44918,0.045172c0.042111,-0.309256 -0.228099,-0.882596 0.08773,-0.840898c0.308811,0.045172 0.670261,-0.090344 0.670261,-0.090344s-0.85274,-0.57334 -1.161551,-0.705382c-0.308811,-0.132042 -0.894851,-0.396126 -1.161551,-0.837423c-0.266701,-0.441298 -0.936961,-0.531642 -0.891342,-0.969465c0.04562,-0.441298 0.670261,-0.177214 1.024692,0.177214c0.35794,0.354428 1.249282,0.837423 1.561602,1.14668c0.308811,0.309256 0.803611,0.441298 0.936961,0.840898c0.13686,0.396126 0.533401,0.837423 0.666752,1.014638c0.13335,0.177214 0.579021,1.150154 0.715881,1.369066c0.13335,0.218912 0.579021,-0.041697 0.803611,-0.218912c0.221081,-0.177214 0.62815,-0.264084 0.670261,-0.618512c0.04562,-0.354428 -0.53691,-0.618512 -0.712371,-0.750554c-0.17897,-0.132042 0.445671,-0.264084 0.670261,-0.441298c0.221081,-0.173739 0.621132,-0.48647 0.800102,-0.218912c0.17897,0.267558 0.09124,1.323893 0.17897,1.501107c0.08773,0.177214 0.979072,0.441298 1.161551,0.663684c0.175461,0.218912 0.936961,0.309256 1.066802,0.177214c0.13686,-0.132042 0.849231,0.090344 1.031711,0.132042c0.171952,0.045172 0.708862,-0.08687 1.066802,-0.173739c0.36145,-0.08687 0.715881,-0.354428 0.670261,0.218912c-0.04562,0.57334 -0.17897,1.455935 -0.62815,1.897233c-0.445671,0.441298 -0.266701,0.663684 -0.708862,0.663684c-0.210553,0 -0.396542,0 -0.547438,0.072971c-0.143878,-0.225861 -0.343903,-0.40655 -0.614113,-0.337054c-0.533401,0.132042 -1.207171,0.132042 -1.649333,0.660209c-0.44918,0.531642 -0.624641,0.57334 -0.715881,0.396126c-0.08773,-0.177214 1.294902,-0.927768 1.112423,-1.150154c-0.175461,-0.218912 -1.245773,-0.132042 -1.828303,-0.132042c-0.58253,0 -1.070312,-0.354428 -1.519492,-0.441298c-0.442162,-0.08687 -1.024692,0.441298 -1.466853,0.882596c-0.44918,0.441298 -0.757991,0.132042 -1.161551,0.132042c-0.40356,0 -1.161551,-0.57334 -1.161551,-0.57334s-0.757991,-0.309256 -1.070312,-0.309256c-0.308811,0 -0.936961,-0.57334 -1.115932,-0.57334c-0.175461,0 -0.666752,-0.3996 -0.308811,-0.576814c0.354431,-0.173739 0.708862,0.177214 0.354431,-0.795726c-0.354431,-0.969465 -1.158042,-0.750554 -1.470363,-0.618512c-0.308811,0.135517 -2.540674,0.08687 -2.719645,0.08687c-0.17897,0 -1.470363,0.441298 -1.870414,0.618512c-0.407069,0.177214 -1.115932,0.3996 -1.294902,0.48647c-0.17897,0.08687 -1.115932,-0.177214 -1.519492,0.045172c-0.529892,0.291882 -1.021183,0.750554 -1.158042,0.750554c-0.13335,0 -0.53691,0.309256 -0.803611,0.97294c-0.27021,0.660209 0.04562,1.233549 -0.44918,1.455935c-0.487781,0.218912 -1.382632,0.708856 -1.737063,1.05981c-0.35794,0.350953 -0.803611,1.591452 -1.245773,2.164792c-0.445671,0.57334 0,1.101507 0.08773,1.455935c0.08773,0.350953 0.400051,1.014638 -0.08773,1.636624c-0.49129,0.618512 -0.445671,0.924293 -0.670261,0.969465c-0.221081,0.045172 0.221081,0.218912 0.308811,0.660209c0.08773,0.444773 -0.400051,0.886071 0.44918,1.282196c0.845721,0.392651 1.245773,0.754029 1.466853,1.275246c0.22459,0.531642 1.340522,1.414238 1.340522,1.414238s0.803611,0.712331 1.207171,1.018112c0.400051,0.309256 0.533401,0.132042 0.621132,-0.173739c0.08773,-0.312731 0.624641,-0.361378 1.245773,-0.361378c0.624641,0 1.070312,0.138991 1.694953,0.048647c0.624641,-0.08687 1.249282,-0.489945 1.473872,-0.576814c0.221081,-0.08687 0.979072,-0.569865 1.554584,-0.218912c0.58253,0.357903 0.4948,0.837423 0.80712,1.153629c0.308811,0.305781 0.842213,0.128567 1.245773,-0.177214c0.400051,-0.312731 0.22459,-0.180689 0.712371,0.08687c0.49129,0.260609 0.715881,0.524693 0.27021,0.927768c-0.44918,0.392651 -0.17897,1.018112 -0.44918,1.63315c-0.266701,0.618512 -0.221081,0.705382 0.27021,0.965991c0.49129,0.264084 1.382632,1.904183 1.649333,2.216914c0.27021,0.305781 -0.08773,1.188377 0.22459,1.720019c0.31232,0.524693 0.624641,0.882596 0.27021,1.150154c-0.36145,0.260609 -0.982581,0.750554 -1.024692,1.63315s0.17897,1.497633 0.35794,1.810363s0.621132,1.150154 0.845721,1.455935c0.22459,0.309256 0.49129,1.05981 0.533401,1.54628c0.04562,0.48647 -0.084221,1.063285 0.13686,1.323893c0.22459,0.264084 0.35794,0.663684 0.757991,1.014638c0.40356,0.357903 0.533401,1.104982 0.533401,1.104982s0.13686,0.309256 0.17897,0.795726c0.042111,0.48647 0.08773,0.792251 0.533401,1.014638c0.442162,0.218912 0.754482,0.264084 0.982581,0.045172c0.221081,-0.218912 1.337012,-0.267558 1.916034,-0.218912c0.579021,0.045172 1.245773,-0.260609 1.828303,-0.660209s1.428252,-1.455935 1.740573,-1.765192c0.31232,-0.312731 1.024692,-0.886071 0.940471,-1.237024c-0.08773,-0.350953 -0.27021,-0.705382 0.084221,-0.882596c0.35794,-0.180689 1.207171,-0.528167 1.249282,-0.795726c0.04562,-0.267558 -0.31583,-1.372541 -0.40356,-1.587977c-0.084221,-0.222386 0.22459,-0.625461 0.579021,-1.063285c0.36145,-0.444773 1.477381,-0.750554 1.652842,-0.927768c0.17897,-0.184164 0.670261,-0.927768 0.761501,-1.504583c0.084221,-0.580289 -0.17897,-1.282196 0,-1.587977c0.175461,-0.312731 0.04562,-0.57334 -0.36145,-0.931243c-0.400051,-0.354428 -0.31232,-1.414238 -0.445671,-1.587977c-0.129841,-0.177214 -0.04562,-1.108457 0.221081,-1.198801c0.266701,-0.07992 0.849231,-0.969465 1.207171,-1.365591c0.35794,-0.396126 1.382632,-1.63315 1.873923,-1.723494c0.487781,-0.08687 1.245773,-0.795726 1.291392,-1.191852c0.04562,-0.3996 1.333503,-1.900708 1.382632,-2.20649c0.04562,-0.312731 0.58253,-1.45941 0.35794,-1.726969c-0.217572,-0.264084 -1.961653,0.3996 -2.182734,0.489945c-0.22459,0.08687 -0.845721,0.441298 -1.565111,0.392651c-0.708862,-0.045172 -0.400051,-0.615037 -0.445671,-0.882596c-0.042111,-0.264084 -0.800102,-1.278721 -0.979072,-1.323893c-0.17897,-0.041697 -0.712371,-0.576814 -0.936961,-1.101507c-0.221081,-0.531642 -0.533401,-1.191852 -0.891342,-1.591452c-0.35794,-0.396126 -0.579021,-1.320419 -0.940471,-1.942405c-0.354431,-0.618512 -0.663242,-1.414238 -0.979072,-1.987578c-0.073694,-0.142466 -0.157915,-0.274508 -0.235118,-0.40655c0.414088,-0.100769 1.014164,-0.284932 1.087858,-0.031273c0.084221,0.305781 0.579021,0.969465 0.666752,1.455935s0.579021,0.309256 0.624641,0.750554c0.049129,0.444773 0.49129,1.504583 0.666752,1.63315c0.182479,0.132042 0.982581,0.840898 1.115932,1.104982c0.13335,0.264084 0.31232,0.618512 0.445671,1.282196c0.13335,0.660209 0.266701,1.542805 0.62815,1.674846c0.35794,0.132042 1.558093,-0.222386 1.782684,-0.354428s1.691443,-0.840898 2.228354,-0.886071c0.53691,-0.041697 0.62815,-0.3996 1.291392,-0.528167c0.670261,-0.132042 1.161551,-0.615037 1.607223,-0.97294c0.445671,-0.350953 0.982581,-1.233549 1.158042,-1.542805c0.182479,-0.305781 0.62815,-0.528167 0.40356,-0.879121c-0.221081,-0.357903 -1.161551,-0.882596 -1.519492,-0.931243c-0.35794,-0.041697 -0.31232,-0.618512 -0.533401,-0.618512s-0.17897,0.305781 -0.624641,0.531642c-0.445671,0.218912 -0.894851,0.660209 -1.207171,0.57334s0.09124,-0.309256 -0.396542,-0.705382s-0.67377,-0.48647 -0.67377,-0.792251c0,-0.309256 -0.975563,-0.886071 -1.066802,-1.327368c-0.09124,-0.441298 0.666752,-1.05981 0.891342,-0.660209c0.221081,0.396126 0.40356,1.014638 0.979072,1.278721c0.579021,0.264084 1.115932,0.708856 1.386141,0.795726c0.266701,0.08687 0.936961,-0.48647 1.158042,-0.396126c0.221081,0.083395 0.670261,0.879121 1.073821,1.014638c0.396542,0.132042 1.737063,0.177214 1.961653,0.177214s1.158042,0.045172 1.337012,-0.218912c0.17897,-0.264084 0.31232,-0.264084 0.53691,-0.264084c0.217572,0 0.621132,0.795726 0.936961,0.882596c0.31232,0.08687 0.891342,0.045172 0.845721,0.621987c-0.042111,0.569865 0.266701,1.05981 0.579021,1.101507c0.31583,0.041697 1.028201,-0.663684 1.028201,-0.663684s0,1.104982 -0.042111,1.504583c-0.049129,0.392651 0.487781,1.855536 0.487781,1.855536s0.666752,1.365591 0.845721,1.674846s0.936961,1.233549 0.936961,1.63315c0,0.3996 0.08773,1.018112 0.36145,1.018112c0.266701,0 0.533401,-0.705382 0.842213,-1.150154c0.319339,-0.437823 0.407069,-1.05981 0.53691,-1.501107c0.13335,-0.441298 0.13335,-1.237024 0.13335,-1.542805c0,-0.312731 0.263191,-0.576814 0.894851,-0.840898c0.624641,-0.264084 1.066802,-1.014638 1.600204,-1.414238c0.53691,-0.3996 0.4948,-1.05981 1.565111,-1.05981c1.070312,0 0.975563,0 1.245773,-0.267558c0.266701,-0.264084 0.529892,-0.441298 0.666752,0.045172c0.13335,0.48647 0.891342,1.191852 1.024692,1.369066c0.13335,0.180689 0.400051,0.663684 0.36145,1.195326c-0.04562,0.528167 0.042111,1.14668 0.263191,1.14668s0.670261,-0.750554 0.670261,-0.750554s0.979072,-0.656735 0.936961,0.045172c-0.049129,0.705382 0.08773,1.455935 0.08773,1.893759c0,0.184164 0.147387,0.469096 0.308811,0.729705c-0.017546,0.205012 -0.014037,0.413499 -0.031583,0.618512c-0.320659,0.06737 -0.325832,0.682482 -0.154537,0.893999zm-24.749191,-18.493866c0.266701,0.173739 0.35794,0.441298 0.533401,0.705382c0.182479,0.264084 0.49129,0.173739 0.712371,0.396126c0.221081,0.222386 -0.624641,0.48647 -0.263191,0.750554c0.354431,0.267558 0.529892,1.323893 0.579021,1.591452c0.04562,0.264084 -0.979072,0.396126 -1.294902,0.354428c-0.31232,-0.045172 -1.242263,-0.354428 -1.561602,-0.441298c-0.31232,-0.090344 -0.487781,-1.191852 -0.08773,-1.150154c0.407069,0.045172 0.4948,-0.08687 0.936961,-0.482995c0.44918,-0.3996 -0.663242,-0.576814 -0.975563,-0.663684c-0.31232,-0.08687 -0.940471,-1.05981 -1.161551,-1.369066c-0.217572,-0.309256 -0.049129,-0.792251 0.4948,-1.150154c0.266701,-0.177214 0.979072,0.218912 1.337012,0c0.354431,-0.218912 0.712371,-0.48647 0.845721,-0.57334c0.13686,-0.08687 1.028201,0.132042 1.158042,0.396126c0.13686,0.264084 0.670261,0.663684 0.4948,0.795726c-0.182479,0.132042 -0.98609,0.264084 -1.249282,0c-0.263191,-0.267558 -0.894851,0.041697 -0.940471,0.528167c-0.050529,0.482317 0.17437,0.122667 0.442162,0.31273zm-12.310394,0.742767c-0.27021,-0.08687 0.08773,-0.618512 0.35794,-0.795726c0.263191,-0.177214 0.575512,-0.618512 0.845721,-1.05981c0.266701,-0.441298 0.624641,-0.48647 0.845721,-0.441298c0.221081,0.045172 0.712371,0.837423 0.845721,1.104982c0.13335,0.264084 0.579021,-0.090344 0.761501,-0.177214c0.175461,-0.08687 0.445671,-0.354428 0.49129,-0.57334s0.445671,-0.354428 0.891342,-0.354428s0.04562,0.354428 -0.266701,0.441298c-0.31583,0.08687 -0.13335,0.267558 0.396542,0.441298c0.53691,0.177214 1.028201,0.663684 1.610731,0.969465c0.579021,0.309256 0.666752,0.927768 0.308811,1.014638c-0.354431,0.08687 -1.424743,0.177214 -1.828303,0.132042c-0.400051,-0.045172 -0.891342,-0.441298 -1.470363,-0.531642c-0.579021,-0.08687 -1.294902,-0.045172 -1.519492,0.267558s-1.024692,0.173739 -1.386141,0.173739c-0.35794,0 -0.800102,0.441298 -0.887832,0.267558c0.00351,0.011992 0.271317,-0.794221 0.00351,-0.879121zm1.51532,-9.798523c0.221081,-0.618512 1.470363,0.132042 1.245773,0.441298c-0.217513,0.301439 -1.39569,-0.037856 -1.245773,-0.441298zm1.74028,31.707153c0.221081,0.354428 -0.49129,1.497633 -0.891342,1.414238c-0.396542,-0.093819 -0.266701,-1.104982 -0.13335,-1.327368c0.130542,-0.2361 0.907062,-0.27797 1.024692,-0.086869zm-16.18692,-20.530182c0.08773,-0.177214 -0.13686,-0.531642 -0.445671,-0.045172c-0.105843,0.151404 0.354622,0.214728 0.445671,0.045172zm26.751648,-16.139648c0.4948,0.264084 1.189625,0.371802 1.519492,0.045172c0.266701,-0.264084 0.04562,-0.708856 -0.175461,-0.750554c-0.22459,-0.045172 -0.364959,-0.3996 0.217572,-0.705382c0.579021,-0.309256 1.203662,-0.708856 1.873923,-0.795726c0.666752,-0.08687 2.182734,-0.132042 2.716135,0c0.533401,0.135517 1.340522,-0.576814 1.561602,-0.882596s-0.712371,-0.528167 -0.979072,-0.177214c-0.27021,0.354428 -1.558093,0.264084 -1.828303,0.177214c-0.266701,-0.08687 -2.407324,0.354428 -2.849485,0.354428c-0.44918,0 -0.62815,0.528167 -1.249282,0.795726c-0.62815,0.264084 -1.473872,0.663684 -1.786193,0.795726c-0.308811,0.132042 -0.621132,0.660209 -0.354431,0.750554c0.268074,0.096203 0.846397,0.138195 1.333503,0.392651zm-23.410431,16.139648c0.22459,-0.309256 -0.17897,-0.754029 -0.400051,-0.754029c-0.421106,0 -0.624641,0.663684 -0.36145,0.882596c0.268825,0.210483 0.536586,0.168765 0.761501,-0.128567zm2.008102,1.187439c0.22459,0.08687 0.400051,0.354428 0.579021,0.396126c0.182479,0.045172 0.761501,0 0.58604,-0.441298s-0.58604,-0.441298 -0.715881,-0.441298c-0.13335,0 -0.712371,-0.132042 -0.936961,0c-0.165661,0.08373 0.262836,0.40151 0.487781,0.48647zm-11.951569,-7.167847c0.354431,0.045172 0.761501,-0.218912 1.070312,-0.350953c0.308811,-0.132042 0.757991,-0.396126 0.757991,-0.795726c0,-0.396126 -0.08773,-0.750554 -0.27021,-0.927768c-0.17897,-0.177214 -0.49129,-0.222386 -0.757991,-0.177214c-0.40356,0.069496 -0.445671,0.48647 -0.712371,0.48647c-0.266701,0 -0.579021,0.08687 -0.49129,0.396126s0.27021,0.528167 0,0.660209c-0.265889,0.135706 0.039333,0.666071 0.40356,0.708857zm2.184509,-1.888214c0.445671,0.177214 1.382632,0.354428 1.024692,0.531642c-0.35794,0.177214 -0.982581,0.660209 -1.070312,0.927768s0.757991,0.531642 0.757991,0.531642s-0.27021,0.309256 -0.04562,0.396126c0.221081,0.08687 0.35794,-0.309256 0.712371,-0.309256c0.354431,0 1.066802,0.218912 1.424743,0.218912c0.36145,0 0.936961,-0.48647 0.891342,-0.795726c-0.04562,-0.309256 -0.49129,-0.795726 -0.891342,-0.97294c-0.396542,-0.177214 -0.845721,-0.97294 -1.112423,-1.150154c-0.266701,-0.177214 0.266701,-0.618512 -0.04562,-0.927768c-0.31583,-0.309256 -0.53691,-0.264084 -0.894851,-0.48647c-0.35794,-0.218912 -0.670261,0.045172 -0.891342,0.309256c-0.221081,0.264084 -0.49129,-0.045172 -0.761501,0.041697c-0.35794,0.121617 -0.221081,0.576814 -0.042111,0.795726c0.183727,0.232623 0.499721,0.720019 0.943981,0.889545zm44.909424,23.584198c-0.291265,0.128567 -0.53691,1.63315 0,1.810363c0.533401,0.180689 0.845721,-0.701907 0.670261,-0.927768c-0.182987,-0.225522 -0.268634,-1.073636 -0.670261,-0.882595zm-16.192368,11.34671c-0.557966,-0.156365 -0.621132,0.576814 -1.066802,1.063285c-0.44918,0.489945 -0.936961,0.882596 -1.112423,0.837423c-0.182479,-0.045172 -1.161551,0.309256 -0.849231,0.969465c0.31232,0.663684 0.266701,1.327368 -0.04562,1.640099c-0.31232,0.305781 0.266701,1.188377 0.182479,1.674846c-0.09124,0.482995 0.129841,0.795726 0.754482,0.795726s0.849231,-0.222386 1.115932,-0.795726c0.266701,-0.576814 0.308811,-1.150154 0.575512,-1.63315c0.27021,-0.489945 0.4948,-1.508057 0.62815,-1.772141c0.13335,-0.260609 0.400051,-1.098032 0.35794,-1.587977c-0.047927,-0.491838 -0.224639,-1.107134 -0.54042,-1.191851zm-34.119781,-40.529144c-0.242136,-0.208487 -0.803611,-0.354428 -1.073821,-0.382226c-0.266701,-0.027798 -0.533401,0.208487 -1.126459,0.208487c-0.589549,0 -0.979072,0.232811 -1.217699,0c-0.239263,-0.229856 -1.224477,-0.356504 -1.31548,-0.208432c-0.123337,0.191132 -0.353439,0.212677 -0.123337,0.615204c0.242136,0.410025 0.421106,0.64631 0.62815,0.618512s0.919415,-0.059071 1.010655,0.177214c0.090885,0.243489 0.331822,0.455861 0.835118,0.30666c0.508837,-0.145941 0.922925,-0.236285 1.038729,-0.413499c0.115804,-0.177214 0.922925,-0.205012 0.922925,-0.205012s0.656724,-0.505267 0.42122,-0.716907z" stroke-width="0" stroke="#7f7f7f" fill="#007fff"/>
   <text xml:space="preserve" text-anchor="middle" font-family="serif" font-size="24" id="svg_38" y="404" x="82" stroke-width="0" stroke="#3f3f3f" fill="#007fff">navigateur</text>
  </g>
  <g id="svg_50">
   <path id="svg_51" d="m280.875366,161.505188c-0.011963,-12.374481 -0.023926,-24.750977 -0.03595,-37.127151c10.76886,0.141487 21.583923,-0.336906 32.315918,0.365601c5.233826,1.603737 4.47937,11.588181 4.394653,19.046936c-0.229736,5.622803 3.057922,16.771973 -5.481018,18.448135c-4.256775,0 -4.273499,1.570724 -3.838867,4.409363c0.504028,4.25621 -0.959717,13.787262 -7.952759,7.746155l-19.401978,-12.889038zm32.95813,-4.045135c0.016907,-11.123688 -0.127075,-20.615234 -0.841431,-27.943512c-6.348206,-2.493767 -14.925537,-1.279541 -22.107788,-1.319214c-2.823547,1.185516 6.697083,5.124054 8.71637,6.651581c7.666016,3.2836 9.953369,9.257584 8.629456,16.007416c0,2.625458 0,5.253143 0,7.878525c1.413574,-0.001587 4.337952,-0.60553 5.603394,-1.274796l0,0z" stroke-width="2" stroke="#7f7f7f" fill="#ff7f00"/>
   <g id="svg_52">
    <text id="svg_53" transform="matrix(0.587765, 0, 0, 0.583443, -12.13, 143.324)" xml:space="preserve" text-anchor="middle" font-family="serif" font-size="24" y="-5.712303" x="613.41468" stroke-width="0" stroke="#000000" fill="#ff7f00">Projet</text>
    <text id="svg_54" transform="matrix(0.587765, 0, 0, 0.583443, -12.13, 143.324)" xml:space="preserve" text-anchor="middle" font-family="serif" font-size="24" y="34.287697" x="628.41468" stroke-width="0" stroke="#000000" fill="#ff7f00">Donn&#233;es</text>
   </g>
  </g>
 </g>
</svg>